<?xml version="1.0" encoding="UTF-8" standalone="no"?>
<svg width="80px" height="92px" viewBox="0 0 80 92" version="1.1" xmlns="http://www.w3.org/2000/svg" xmlns:xlink="http://www.w3.org/1999/xlink" xmlns:sketch="http://www.bohemiancoding.com/sketch/ns">
    <!-- Generator: Sketch 3.4 (15575) - http://www.bohemiancoding.com/sketch -->
    <title>Rectangle 70</title>
    <desc>Created with Sketch.</desc>
    <defs></defs>
    <g id="Page-1" stroke="none" stroke-width="1" fill="none" fill-rule="evenodd" sketch:type="MSPage">
        <g id="Desktop-HD-Copy-8" sketch:type="MSArtboardGroup" transform="translate(-296.000000, -163.000000)">
            <g id="Content" sketch:type="MSLayerGroup" transform="translate(240.000000, 103.000000)">
                <g id="LOGO" transform="translate(56.000000, 60.000000)" sketch:type="MSShapeGroup">
                    <g id="Logo" transform="translate(11.000000, 5.000000)" stroke="#56938C" stroke-width="2">
                        <g id="Stroke-1-+-Stroke-3" transform="translate(7.000000, 5.000000)">
                            <path d="M12.4831104,43.3909386 L0,21.6952176 L12.4831104,0 L37.4476589,0 L49.9307692,21.6952176 L37.4476589,43.3909386 L12.4831104,43.3909386 L12.4831104,43.3909386 Z" id="Stroke-1" fill-opacity="0" fill="#FFFFFF"></path>
                            <path d="M0,21.6557836 L24.9118729,21.6557836 L37.3394649,0" id="Stroke-3"></path>
                        </g>
                    </g>
                    <path d="M31.76,78.448 L27.136,78.448 L29.248,76.432 C30.1226665,75.6 30.744,74.896 31.112,74.32 C31.48,73.744 31.664,73.0933335 31.664,72.368 C31.664,71.3866836 31.3333335,70.5893506 30.672,69.976 C30.0106665,69.362667 29.1466665,69.056 28.08,69.056 C27.0026672,69.056 26.1280005,69.365333 25.456,69.984 C24.784,70.602667 24.4266667,71.434667 24.384,72.48 L25.952,72.8 C25.9946665,72.064 26.2,71.504 26.568,71.12 C26.936,70.736 27.4346667,70.544 28.064,70.544 C28.64,70.544 29.1093335,70.714667 29.472,71.056 C29.8346665,71.397333 30.016,71.8453335 30.016,72.4 C30.016,72.7093335 29.976,72.992 29.896,73.248 C29.816,73.504 29.6693335,73.7653335 29.456,74.032 C29.2426665,74.2986665 29.0666665,74.5013335 28.928,74.64 C28.7893335,74.7786665 28.5546665,75.0026665 28.224,75.312 L24.512,78.896 L24.512,80 L31.76,80 L31.76,78.448 Z M39.8,69.28 L38.744,69.28 L35.384,71.232 L35.384,72.784 L38.136,71.312 L38.136,80 L39.8,80 L39.8,69.28 Z M51.872,78.448 L47.248,78.448 L49.36,76.432 C50.2346665,75.6 50.856,74.896 51.224,74.32 C51.592,73.744 51.776,73.0933335 51.776,72.368 C51.776,71.3866836 51.4453335,70.5893506 50.784,69.976 C50.1226665,69.362667 49.2586665,69.056 48.192,69.056 C47.1146672,69.056 46.2400005,69.365333 45.568,69.984 C44.896,70.602667 44.5386667,71.434667 44.496,72.48 L46.064,72.8 C46.1066665,72.064 46.312,71.504 46.68,71.12 C47.048,70.736 47.5466667,70.544 48.176,70.544 C48.752,70.544 49.2213335,70.714667 49.584,71.056 C49.9466665,71.397333 50.128,71.8453335 50.128,72.4 C50.128,72.7093335 50.088,72.992 50.008,73.248 C49.928,73.504 49.7813335,73.7653335 49.568,74.032 C49.3546665,74.2986665 49.1786665,74.5013335 49.04,74.64 C48.9013335,74.7786665 48.6666665,75.0026665 48.336,75.312 L44.624,78.896 L44.624,80 L51.872,80 L51.872,78.448 Z M59.912,69.28 L58.856,69.28 L55.496,71.232 L55.496,72.784 L58.248,71.312 L58.248,80 L59.912,80 L59.912,69.28 Z" id="2121" fill="#56938C"></path>
                </g>
            </g>
        </g>
    </g>
</svg>