<?xml version="1.0" encoding="UTF-8" standalone="no"?>
<svg width="120px" height="54px" viewBox="0 0 120 54" version="1.1" xmlns="http://www.w3.org/2000/svg" xmlns:xlink="http://www.w3.org/1999/xlink" xmlns:sketch="http://www.bohemiancoding.com/sketch/ns">
    <!-- Generator: Sketch 3.4 (15575) - http://www.bohemiancoding.com/sketch -->
    <title>Rectangle 69</title>
    <desc>Created with Sketch.</desc>
    <defs></defs>
    <g id="Page-1" stroke="none" stroke-width="1" fill="none" fill-rule="evenodd" sketch:type="MSPage">
        <g id="Desktop-HD-Copy-8" sketch:type="MSArtboardGroup" transform="translate(-303.000000, -168.000000)">
            <g id="Content" sketch:type="MSLayerGroup" transform="translate(240.000000, 103.000000)">
                <g id="LOGO" transform="translate(63.000000, 65.000000)" sketch:type="MSShapeGroup">
                    <g id="Logo" stroke="#56938C" stroke-width="2">
                        <path d="M19.4831104,48.3909386 L7,26.6952176 L19.4831104,5 L44.4476589,5 L56.9307692,26.6952176 L44.4476589,48.3909386 L19.4831104,48.3909386 L19.4831104,48.3909386 Z" id="Stroke-1" fill-opacity="0" fill="#FFFFFF"></path>
                        <path d="M7,26.6557836 L31.9118729,26.6557836 L44.3394649,5" id="Stroke-3"></path>
                    </g>
                    <path d="M83.76,30.448 L79.136,30.448 L81.248,28.432 C82.1226665,27.6 82.744,26.896 83.112,26.32 C83.48,25.744 83.664,25.0933335 83.664,24.368 C83.664,23.3866836 83.3333335,22.5893506 82.672,21.976 C82.0106665,21.362667 81.1466665,21.056 80.08,21.056 C79.0026672,21.056 78.1280005,21.365333 77.456,21.984 C76.784,22.602667 76.4266667,23.434667 76.384,24.48 L77.952,24.8 C77.9946665,24.064 78.2,23.504 78.568,23.12 C78.936,22.736 79.4346667,22.544 80.064,22.544 C80.64,22.544 81.1093335,22.714667 81.472,23.056 C81.8346665,23.397333 82.016,23.8453335 82.016,24.4 C82.016,24.7093335 81.976,24.992 81.896,25.248 C81.816,25.504 81.6693335,25.7653335 81.456,26.032 C81.2426665,26.2986665 81.0666665,26.5013335 80.928,26.64 C80.7893335,26.7786665 80.5546665,27.0026665 80.224,27.312 L76.512,30.896 L76.512,32 L83.76,32 L83.76,30.448 Z M91.8,21.28 L90.744,21.28 L87.384,23.232 L87.384,24.784 L90.136,23.312 L90.136,32 L91.8,32 L91.8,21.28 Z M103.872,30.448 L99.248,30.448 L101.36,28.432 C102.234667,27.6 102.856,26.896 103.224,26.32 C103.592,25.744 103.776,25.0933335 103.776,24.368 C103.776,23.3866836 103.445333,22.5893506 102.784,21.976 C102.122667,21.362667 101.258667,21.056 100.192,21.056 C99.1146672,21.056 98.2400005,21.365333 97.568,21.984 C96.896,22.602667 96.5386667,23.434667 96.496,24.48 L98.064,24.8 C98.1066665,24.064 98.312,23.504 98.68,23.12 C99.048,22.736 99.5466667,22.544 100.176,22.544 C100.752,22.544 101.221333,22.714667 101.584,23.056 C101.946667,23.397333 102.128,23.8453335 102.128,24.4 C102.128,24.7093335 102.088,24.992 102.008,25.248 C101.928,25.504 101.781333,25.7653335 101.568,26.032 C101.354667,26.2986665 101.178667,26.5013335 101.04,26.64 C100.901333,26.7786665 100.666667,27.0026665 100.336,27.312 L96.624,30.896 L96.624,32 L103.872,32 L103.872,30.448 Z M111.912,21.28 L110.856,21.28 L107.496,23.232 L107.496,24.784 L110.248,23.312 L110.248,32 L111.912,32 L111.912,21.28 Z" id="2121" fill="#56938C"></path>
                </g>
            </g>
        </g>
    </g>
</svg>